<svg width="13" height="16" viewBox="0 0 13 16" fill="none" xmlns="http://www.w3.org/2000/svg">
<path d="M10.3328 13.3582C9.2714 14.4097 7.86217 14.9869 6.36004 14.9869C4.85791 14.9869 3.44868 14.4097 2.38731 13.3582C1.32989 12.3087 0.746826 10.9173 0.746826 9.43689C0.746826 8.57712 0.940522 7.75293 1.32198 6.98605C1.69356 6.23697 2.24698 5.56694 2.91898 5.05108C3.34756 4.72336 3.73628 4.34658 4.0772 3.92844C4.57132 3.32561 4.95871 2.6536 5.22751 1.93219C5.33777 1.6346 5.41789 1.32671 5.46667 1.01312C5.943 1.4519 6.34225 1.9816 6.67628 2.60221C7.33642 3.83949 7.6408 4.94039 7.5815 5.87725C7.56734 6.09789 7.60337 6.31888 7.6869 6.5236C7.77043 6.72831 7.89928 6.91143 8.06377 7.05919C8.20631 7.18795 8.37301 7.2871 8.5542 7.35089C8.73539 7.41468 8.92744 7.44183 9.11921 7.43076C9.50858 7.411 9.86632 7.23905 10.1272 6.9485C10.3901 6.65401 10.6174 6.35358 10.8071 6.04723C11.0838 6.40102 11.3151 6.78643 11.4989 7.20149C11.8132 7.90907 11.9733 8.66211 11.9733 9.43689C11.9733 10.9173 11.3902 12.3107 10.3328 13.3582Z" stroke="#97A2B0" stroke-linejoin="round"/>
<path d="M7.20724 11.9546C6.78127 12.3766 6.21568 12.6083 5.61281 12.6083C5.00994 12.6083 4.44436 12.3766 4.01838 11.9546C3.59399 11.5334 3.35999 10.975 3.35999 10.3808C3.35999 10.0358 3.43772 9.70498 3.59082 9.3972C3.73995 9.09656 3.96206 8.82765 4.23177 8.62061C4.40377 8.48908 4.55978 8.33786 4.69661 8.17004C4.89492 7.9281 5.0504 7.6584 5.15828 7.36886C5.20253 7.24943 5.23469 7.12585 5.25426 7C5.44544 7.1761 5.60567 7.38869 5.73973 7.63777C6.00468 8.13435 6.12684 8.57619 6.10304 8.95219C6.09736 9.04074 6.11182 9.12943 6.14534 9.21159C6.17887 9.29376 6.23058 9.36725 6.29659 9.42655C6.3538 9.47823 6.42071 9.51802 6.49343 9.54362C6.56614 9.56922 6.64322 9.58012 6.72019 9.57568C6.87646 9.56775 7.02004 9.49873 7.12475 9.38213C7.23025 9.26393 7.32147 9.14336 7.39762 9.02041C7.50868 9.1624 7.60149 9.31708 7.67526 9.48366C7.80139 9.76765 7.86564 10.0699 7.86564 10.3808C7.86564 10.975 7.63163 11.5342 7.20724 11.9546Z" stroke="#97A2B0" stroke-linejoin="round"/>
</svg>
