<svg width="17" height="17" viewBox="0 0 17 17" fill="none" xmlns="http://www.w3.org/2000/svg">
<path fill-rule="evenodd" clip-rule="evenodd" d="M8.5 0C8.70494 0 8.90149 0.0814121 9.0464 0.226327C9.19131 0.371241 9.27273 0.567787 9.27273 0.772727V2.31818C9.27273 2.52312 9.19131 2.71967 9.0464 2.86458C8.90149 3.0095 8.70494 3.09091 8.5 3.09091C8.29506 3.09091 8.09851 3.0095 7.9536 2.86458C7.80868 2.71967 7.72727 2.52312 7.72727 2.31818V0.772727C7.72727 0.567787 7.80868 0.371241 7.9536 0.226327C8.09851 0.0814121 8.29506 0 8.5 0ZM3.86364 8.5C3.86364 7.27036 4.35211 6.09108 5.2216 5.2216C6.09108 4.35211 7.27036 3.86364 8.5 3.86364C9.72964 3.86364 10.9089 4.35211 11.7784 5.2216C12.6479 6.09108 13.1364 7.27036 13.1364 8.5C13.1364 9.72964 12.6479 10.9089 11.7784 11.7784C10.9089 12.6479 9.72964 13.1364 8.5 13.1364C7.27036 13.1364 6.09108 12.6479 5.2216 11.7784C4.35211 10.9089 3.86364 9.72964 3.86364 8.5ZM8.5 5.40909C7.68024 5.40909 6.89405 5.73474 6.3144 6.3144C5.73474 6.89405 5.40909 7.68024 5.40909 8.5C5.40909 9.31976 5.73474 10.1059 6.3144 10.6856C6.89405 11.2653 7.68024 11.5909 8.5 11.5909C9.31976 11.5909 10.1059 11.2653 10.6856 10.6856C11.2653 10.1059 11.5909 9.31976 11.5909 8.5C11.5909 7.68024 11.2653 6.89405 10.6856 6.3144C10.1059 5.73474 9.31976 5.40909 8.5 5.40909ZM9.27273 14.6818C9.27273 14.4769 9.19131 14.2803 9.0464 14.1354C8.90149 13.9905 8.70494 13.9091 8.5 13.9091C8.29506 13.9091 8.09851 13.9905 7.9536 14.1354C7.80868 14.2803 7.72727 14.4769 7.72727 14.6818V16.2273C7.72727 16.4322 7.80868 16.6288 7.9536 16.7737C8.09851 16.9186 8.29506 17 8.5 17C8.70494 17 8.90149 16.9186 9.0464 16.7737C9.19131 16.6288 9.27273 16.4322 9.27273 16.2273V14.6818ZM17 8.5C17 8.70494 16.9186 8.90149 16.7737 9.0464C16.6288 9.19131 16.4322 9.27273 16.2273 9.27273H14.6818C14.4769 9.27273 14.2803 9.19131 14.1354 9.0464C13.9905 8.90149 13.9091 8.70494 13.9091 8.5C13.9091 8.29506 13.9905 8.09851 14.1354 7.9536C14.2803 7.80868 14.4769 7.72727 14.6818 7.72727H16.2273C16.4322 7.72727 16.6288 7.80868 16.7737 7.9536C16.9186 8.09851 17 8.29506 17 8.5ZM2.31818 9.27273C2.52312 9.27273 2.71967 9.19131 2.86458 9.0464C3.0095 8.90149 3.09091 8.70494 3.09091 8.5C3.09091 8.29506 3.0095 8.09851 2.86458 7.9536C2.71967 7.80868 2.52312 7.72727 2.31818 7.72727H0.772727C0.567787 7.72727 0.371241 7.80868 0.226327 7.9536C0.0814121 8.09851 0 8.29506 0 8.5C0 8.70494 0.0814121 8.90149 0.226327 9.0464C0.371241 9.19131 0.567787 9.27273 0.772727 9.27273H2.31818ZM14.5103 2.48973C14.6551 2.63463 14.7365 2.83115 14.7365 3.03605C14.7365 3.24094 14.6551 3.43746 14.5103 3.58236L13.4176 4.675C13.3464 4.7488 13.2611 4.80767 13.1668 4.84817C13.0725 4.88867 12.9711 4.90998 12.8685 4.91088C12.7659 4.91177 12.6642 4.89222 12.5692 4.85336C12.4743 4.81451 12.388 4.75713 12.3154 4.68458C12.2429 4.61202 12.1855 4.52575 12.1466 4.43078C12.1078 4.33582 12.0882 4.23406 12.0891 4.13146C12.09 4.02886 12.1113 3.92746 12.1518 3.83319C12.1923 3.73891 12.2512 3.65365 12.325 3.58236L13.4176 2.48973C13.5625 2.34486 13.7591 2.26348 13.964 2.26348C14.1689 2.26348 14.3654 2.34486 14.5103 2.48973ZM4.675 13.4176C4.7488 13.3464 4.80767 13.2611 4.84817 13.1668C4.88867 13.0725 4.90998 12.9711 4.91088 12.8685C4.91177 12.7659 4.89222 12.6642 4.85336 12.5692C4.81451 12.4743 4.75713 12.388 4.68458 12.3154C4.61202 12.2429 4.52575 12.1855 4.43078 12.1466C4.33582 12.1078 4.23406 12.0882 4.13146 12.0891C4.02886 12.09 3.92746 12.1113 3.83319 12.1518C3.73891 12.1923 3.65365 12.2512 3.58236 12.325L2.48973 13.4176C2.41592 13.4889 2.35706 13.5742 2.31656 13.6685C2.27606 13.7627 2.25474 13.8641 2.25385 13.9667C2.25296 14.0693 2.27251 14.1711 2.31136 14.2661C2.35022 14.361 2.4076 14.4473 2.48015 14.5199C2.5527 14.5924 2.63898 14.6498 2.73394 14.6886C2.82891 14.7275 2.93066 14.747 3.03326 14.7461C3.13587 14.7453 3.23726 14.7239 3.33154 14.6834C3.42582 14.6429 3.51108 14.5841 3.58236 14.5103L4.675 13.4176ZM2.48973 2.48973C2.63463 2.34486 2.83115 2.26348 3.03605 2.26348C3.24094 2.26348 3.43746 2.34486 3.58236 2.48973L4.675 3.58236C4.7488 3.65365 4.80767 3.73891 4.84817 3.83319C4.88867 3.92746 4.90998 4.02886 4.91088 4.13146C4.91177 4.23406 4.89222 4.33582 4.85336 4.43078C4.81451 4.52575 4.75713 4.61202 4.68458 4.68458C4.61202 4.75713 4.52575 4.81451 4.43078 4.85336C4.33582 4.89222 4.23406 4.91177 4.13146 4.91088C4.02886 4.90998 3.92746 4.88867 3.83319 4.84817C3.73891 4.80767 3.65365 4.7488 3.58236 4.675L2.48973 3.58236C2.34486 3.43746 2.26348 3.24094 2.26348 3.03605C2.26348 2.83115 2.34486 2.63463 2.48973 2.48973ZM13.4176 12.325C13.2719 12.1842 13.0767 12.1064 12.8741 12.1081C12.6715 12.1099 12.4777 12.1911 12.3344 12.3344C12.1911 12.4777 12.1099 12.6715 12.1081 12.8741C12.1064 13.0767 12.1842 13.2719 12.325 13.4176L13.4176 14.5103C13.5634 14.651 13.7586 14.7289 13.9612 14.7272C14.1638 14.7254 14.3576 14.6441 14.5009 14.5009C14.6441 14.3576 14.7254 14.1638 14.7272 13.9612C14.7289 13.7586 14.651 13.5634 14.5103 13.4176L13.4176 12.325Z" fill="black"/>
</svg>
